<?xml version="1.0" encoding="UTF-8" standalone="no"?>
<!DOCTYPE svg PUBLIC "-//W3C//DTD SVG 1.1//EN"
 "http://www.w3.org/Graphics/SVG/1.1/DTD/svg11.dtd">
<!-- Generated by graphviz version 2.38.0 (20140413.2041)
 -->
<!-- Title: AVLBaum Pages: 1 -->
<svg width="566pt" height="332pt"
 viewBox="0.00 0.00 566.00 332.00" xmlns="http://www.w3.org/2000/svg" xmlns:xlink="http://www.w3.org/1999/xlink">
<g id="graph0" class="graph" transform="scale(1 1) rotate(0) translate(4 328)">
<title>AVLBaum</title>
<polygon fill="white" stroke="none" points="-4,4 -4,-328 562,-328 562,4 -4,4"/>
<!-- 8 -->
<g id="node1" class="node"><title>8</title>
<ellipse fill="none" stroke="black" cx="225" cy="-306" rx="27" ry="18"/>
<text text-anchor="middle" x="225" y="-302.3" font-family="Times,serif" font-size="14.00">8</text>
</g>
<!-- 5 -->
<g id="node2" class="node"><title>5</title>
<ellipse fill="none" stroke="black" cx="171" cy="-234" rx="27" ry="18"/>
<text text-anchor="middle" x="171" y="-230.3" font-family="Times,serif" font-size="14.00">5</text>
</g>
<!-- 8&#45;&gt;5 -->
<g id="edge1" class="edge"><title>8&#45;&gt;5</title>
<path fill="none" stroke="black" d="M213.016,-289.465C206.024,-280.402 197.064,-268.786 189.215,-258.612"/>
<polygon fill="black" stroke="black" points="191.83,-256.272 182.951,-250.492 186.288,-260.548 191.83,-256.272"/>
</g>
<!-- 13 -->
<g id="node3" class="node"><title>13</title>
<ellipse fill="none" stroke="black" cx="279" cy="-234" rx="27" ry="18"/>
<text text-anchor="middle" x="279" y="-230.3" font-family="Times,serif" font-size="14.00">13</text>
</g>
<!-- 8&#45;&gt;13 -->
<g id="edge2" class="edge"><title>8&#45;&gt;13</title>
<path fill="none" stroke="black" d="M236.984,-289.465C243.976,-280.402 252.936,-268.786 260.785,-258.612"/>
<polygon fill="black" stroke="black" points="263.712,-260.548 267.049,-250.492 258.17,-256.272 263.712,-260.548"/>
</g>
<!-- 3 -->
<g id="node4" class="node"><title>3</title>
<ellipse fill="none" stroke="black" cx="99" cy="-162" rx="27" ry="18"/>
<text text-anchor="middle" x="99" y="-158.3" font-family="Times,serif" font-size="14.00">3</text>
</g>
<!-- 5&#45;&gt;3 -->
<g id="edge3" class="edge"><title>5&#45;&gt;3</title>
<path fill="none" stroke="black" d="M156.43,-218.834C146.25,-208.938 132.476,-195.546 120.969,-184.359"/>
<polygon fill="black" stroke="black" points="123.405,-181.846 113.796,-177.385 118.526,-186.865 123.405,-181.846"/>
</g>
<!-- 6 -->
<g id="node5" class="node"><title>6</title>
<ellipse fill="none" stroke="black" cx="171" cy="-162" rx="27" ry="18"/>
<text text-anchor="middle" x="171" y="-158.3" font-family="Times,serif" font-size="14.00">6</text>
</g>
<!-- 5&#45;&gt;6 -->
<g id="edge4" class="edge"><title>5&#45;&gt;6</title>
<path fill="none" stroke="black" d="M171,-215.697C171,-207.983 171,-198.712 171,-190.112"/>
<polygon fill="black" stroke="black" points="174.5,-190.104 171,-180.104 167.5,-190.104 174.5,-190.104"/>
</g>
<!-- 10 -->
<g id="node10" class="node"><title>10</title>
<ellipse fill="none" stroke="black" cx="279" cy="-162" rx="27" ry="18"/>
<text text-anchor="middle" x="279" y="-158.3" font-family="Times,serif" font-size="14.00">10</text>
</g>
<!-- 13&#45;&gt;10 -->
<g id="edge9" class="edge"><title>13&#45;&gt;10</title>
<path fill="none" stroke="black" d="M279,-215.697C279,-207.983 279,-198.712 279,-190.112"/>
<polygon fill="black" stroke="black" points="282.5,-190.104 279,-180.104 275.5,-190.104 282.5,-190.104"/>
</g>
<!-- 16 -->
<g id="node11" class="node"><title>16</title>
<ellipse fill="none" stroke="black" cx="387" cy="-162" rx="27" ry="18"/>
<text text-anchor="middle" x="387" y="-158.3" font-family="Times,serif" font-size="14.00">16</text>
</g>
<!-- 13&#45;&gt;16 -->
<g id="edge10" class="edge"><title>13&#45;&gt;16</title>
<path fill="none" stroke="black" d="M297.812,-220.807C315.002,-209.665 340.618,-193.062 359.993,-180.504"/>
<polygon fill="black" stroke="black" points="361.916,-183.429 368.403,-175.053 358.108,-177.555 361.916,-183.429"/>
</g>
<!-- 1 -->
<g id="node6" class="node"><title>1</title>
<ellipse fill="none" stroke="black" cx="27" cy="-90" rx="27" ry="18"/>
<text text-anchor="middle" x="27" y="-86.3" font-family="Times,serif" font-size="14.00">1</text>
</g>
<!-- 3&#45;&gt;1 -->
<g id="edge5" class="edge"><title>3&#45;&gt;1</title>
<path fill="none" stroke="black" d="M84.4297,-146.834C74.2501,-136.938 60.4761,-123.546 48.9694,-112.359"/>
<polygon fill="black" stroke="black" points="51.4055,-109.846 41.7957,-105.385 46.5259,-114.865 51.4055,-109.846"/>
</g>
<!-- 4 -->
<g id="node7" class="node"><title>4</title>
<ellipse fill="none" stroke="black" cx="99" cy="-90" rx="27" ry="18"/>
<text text-anchor="middle" x="99" y="-86.3" font-family="Times,serif" font-size="14.00">4</text>
</g>
<!-- 3&#45;&gt;4 -->
<g id="edge6" class="edge"><title>3&#45;&gt;4</title>
<path fill="none" stroke="black" d="M99,-143.697C99,-135.983 99,-126.712 99,-118.112"/>
<polygon fill="black" stroke="black" points="102.5,-118.104 99,-108.104 95.5001,-118.104 102.5,-118.104"/>
</g>
<!-- 7 -->
<g id="node9" class="node"><title>7</title>
<ellipse fill="none" stroke="black" cx="171" cy="-90" rx="27" ry="18"/>
<text text-anchor="middle" x="171" y="-86.3" font-family="Times,serif" font-size="14.00">7</text>
</g>
<!-- 6&#45;&gt;7 -->
<g id="edge8" class="edge"><title>6&#45;&gt;7</title>
<path fill="none" stroke="black" d="M171,-143.697C171,-135.983 171,-126.712 171,-118.112"/>
<polygon fill="black" stroke="black" points="174.5,-118.104 171,-108.104 167.5,-118.104 174.5,-118.104"/>
</g>
<!-- 2 -->
<g id="node8" class="node"><title>2</title>
<ellipse fill="none" stroke="black" cx="27" cy="-18" rx="27" ry="18"/>
<text text-anchor="middle" x="27" y="-14.3" font-family="Times,serif" font-size="14.00">2</text>
</g>
<!-- 1&#45;&gt;2 -->
<g id="edge7" class="edge"><title>1&#45;&gt;2</title>
<path fill="none" stroke="black" d="M27,-71.6966C27,-63.9827 27,-54.7125 27,-46.1124"/>
<polygon fill="black" stroke="black" points="30.5001,-46.1043 27,-36.1043 23.5001,-46.1044 30.5001,-46.1043"/>
</g>
<!-- 9 -->
<g id="node12" class="node"><title>9</title>
<ellipse fill="none" stroke="black" cx="243" cy="-90" rx="27" ry="18"/>
<text text-anchor="middle" x="243" y="-86.3" font-family="Times,serif" font-size="14.00">9</text>
</g>
<!-- 10&#45;&gt;9 -->
<g id="edge11" class="edge"><title>10&#45;&gt;9</title>
<path fill="none" stroke="black" d="M270.65,-144.765C266.288,-136.283 260.853,-125.714 255.959,-116.197"/>
<polygon fill="black" stroke="black" points="258.99,-114.439 251.304,-107.147 252.765,-117.641 258.99,-114.439"/>
</g>
<!-- 12 -->
<g id="node13" class="node"><title>12</title>
<ellipse fill="none" stroke="black" cx="315" cy="-90" rx="27" ry="18"/>
<text text-anchor="middle" x="315" y="-86.3" font-family="Times,serif" font-size="14.00">12</text>
</g>
<!-- 10&#45;&gt;12 -->
<g id="edge12" class="edge"><title>10&#45;&gt;12</title>
<path fill="none" stroke="black" d="M287.35,-144.765C291.712,-136.283 297.147,-125.714 302.041,-116.197"/>
<polygon fill="black" stroke="black" points="305.235,-117.641 306.696,-107.147 299.01,-114.439 305.235,-117.641"/>
</g>
<!-- 15 -->
<g id="node15" class="node"><title>15</title>
<ellipse fill="none" stroke="black" cx="387" cy="-90" rx="27" ry="18"/>
<text text-anchor="middle" x="387" y="-86.3" font-family="Times,serif" font-size="14.00">15</text>
</g>
<!-- 16&#45;&gt;15 -->
<g id="edge14" class="edge"><title>16&#45;&gt;15</title>
<path fill="none" stroke="black" d="M387,-143.697C387,-135.983 387,-126.712 387,-118.112"/>
<polygon fill="black" stroke="black" points="390.5,-118.104 387,-108.104 383.5,-118.104 390.5,-118.104"/>
</g>
<!-- 19 -->
<g id="node16" class="node"><title>19</title>
<ellipse fill="none" stroke="black" cx="459" cy="-90" rx="27" ry="18"/>
<text text-anchor="middle" x="459" y="-86.3" font-family="Times,serif" font-size="14.00">19</text>
</g>
<!-- 16&#45;&gt;19 -->
<g id="edge15" class="edge"><title>16&#45;&gt;19</title>
<path fill="none" stroke="black" d="M401.57,-146.834C411.75,-136.938 425.524,-123.546 437.031,-112.359"/>
<polygon fill="black" stroke="black" points="439.474,-114.865 444.204,-105.385 434.595,-109.846 439.474,-114.865"/>
</g>
<!-- 11 -->
<g id="node14" class="node"><title>11</title>
<ellipse fill="none" stroke="black" cx="315" cy="-18" rx="27" ry="18"/>
<text text-anchor="middle" x="315" y="-14.3" font-family="Times,serif" font-size="14.00">11</text>
</g>
<!-- 12&#45;&gt;11 -->
<g id="edge13" class="edge"><title>12&#45;&gt;11</title>
<path fill="none" stroke="black" d="M315,-71.6966C315,-63.9827 315,-54.7125 315,-46.1124"/>
<polygon fill="black" stroke="black" points="318.5,-46.1043 315,-36.1043 311.5,-46.1044 318.5,-46.1043"/>
</g>
<!-- 14 -->
<g id="node17" class="node"><title>14</title>
<ellipse fill="none" stroke="black" cx="387" cy="-18" rx="27" ry="18"/>
<text text-anchor="middle" x="387" y="-14.3" font-family="Times,serif" font-size="14.00">14</text>
</g>
<!-- 15&#45;&gt;14 -->
<g id="edge16" class="edge"><title>15&#45;&gt;14</title>
<path fill="none" stroke="black" d="M387,-71.6966C387,-63.9827 387,-54.7125 387,-46.1124"/>
<polygon fill="black" stroke="black" points="390.5,-46.1043 387,-36.1043 383.5,-46.1044 390.5,-46.1043"/>
</g>
<!-- 17 -->
<g id="node18" class="node"><title>17</title>
<ellipse fill="none" stroke="black" cx="459" cy="-18" rx="27" ry="18"/>
<text text-anchor="middle" x="459" y="-14.3" font-family="Times,serif" font-size="14.00">17</text>
</g>
<!-- 19&#45;&gt;17 -->
<g id="edge17" class="edge"><title>19&#45;&gt;17</title>
<path fill="none" stroke="black" d="M459,-71.6966C459,-63.9827 459,-54.7125 459,-46.1124"/>
<polygon fill="black" stroke="black" points="462.5,-46.1043 459,-36.1043 455.5,-46.1044 462.5,-46.1043"/>
</g>
<!-- 20 -->
<g id="node19" class="node"><title>20</title>
<ellipse fill="none" stroke="black" cx="531" cy="-18" rx="27" ry="18"/>
<text text-anchor="middle" x="531" y="-14.3" font-family="Times,serif" font-size="14.00">20</text>
</g>
<!-- 19&#45;&gt;20 -->
<g id="edge18" class="edge"><title>19&#45;&gt;20</title>
<path fill="none" stroke="black" d="M473.57,-74.8345C483.75,-64.9376 497.524,-51.5462 509.031,-40.3591"/>
<polygon fill="black" stroke="black" points="511.474,-42.865 516.204,-33.3847 506.595,-37.8461 511.474,-42.865"/>
</g>
</g>
</svg>
